<mxfile host="app.diagrams.net" agent="Mozilla/5.0 (Windows NT 10.0; Win64; x64) AppleWebKit/537.36 (KHTML, like Gecko) Chrome/140.0.0.0 Safari/537.36" version="28.2.5">
  <diagram name="Page-1" id="uaoMQApZfLwPgrcbUXGE">
    <mxGraphModel dx="1426" dy="777" grid="1" gridSize="10" guides="1" tooltips="1" connect="1" arrows="1" fold="1" page="1" pageScale="1" pageWidth="850" pageHeight="1100" math="0" shadow="0">
      <root>
        <mxCell id="0" />
        <mxCell id="1" parent="0" />
        <mxCell id="q5DTDDztkqhi49hcPNBz-3" value="Products" style="swimlane;fontStyle=1;align=center;verticalAlign=top;childLayout=stackLayout;horizontal=1;startSize=30;horizontalStack=0;resizeParent=1;resizeParentMax=0;resizeLast=0;collapsible=1;marginBottom=0;whiteSpace=wrap;html=1;fillColor=#ffe6cc;strokeColor=#d79b00;gradientColor=light-dark(#ffb375, #ededed);" vertex="1" parent="1">
          <mxGeometry x="230" y="80" width="160" height="154" as="geometry" />
        </mxCell>
        <mxCell id="q5DTDDztkqhi49hcPNBz-4" value="Price&lt;br&gt;&lt;div&gt;Materials&lt;/div&gt;&lt;div&gt;Colors&lt;/div&gt;&lt;div&gt;Size&lt;/div&gt;&lt;div&gt;Name&lt;/div&gt;" style="text;strokeColor=#b85450;fillColor=#f8cecc;align=left;verticalAlign=top;spacingLeft=4;spacingRight=4;overflow=hidden;rotatable=0;points=[[0,0.5],[1,0.5]];portConstraint=eastwest;whiteSpace=wrap;html=1;gradientColor=light-dark(#e86868, #ededed);fontStyle=1;labelBackgroundColor=none;labelBorderColor=none;textShadow=0;" vertex="1" parent="q5DTDDztkqhi49hcPNBz-3">
          <mxGeometry y="30" width="160" height="90" as="geometry" />
        </mxCell>
        <mxCell id="q5DTDDztkqhi49hcPNBz-5" value="" style="line;strokeWidth=1;fillColor=none;align=left;verticalAlign=middle;spacingTop=-1;spacingLeft=3;spacingRight=3;rotatable=0;labelPosition=right;points=[];portConstraint=eastwest;strokeColor=inherit;" vertex="1" parent="q5DTDDztkqhi49hcPNBz-3">
          <mxGeometry y="120" width="160" height="8" as="geometry" />
        </mxCell>
        <mxCell id="q5DTDDztkqhi49hcPNBz-6" value="&lt;div&gt;def product_details()&lt;/div&gt;" style="text;strokeColor=#006EAF;fillColor=#1ba1e2;align=left;verticalAlign=top;spacingLeft=4;spacingRight=4;overflow=hidden;rotatable=0;points=[[0,0.5],[1,0.5]];portConstraint=eastwest;whiteSpace=wrap;html=1;fontColor=#ffffff;gradientColor=light-dark(#1abaff, #ededed);" vertex="1" parent="q5DTDDztkqhi49hcPNBz-3">
          <mxGeometry y="128" width="160" height="26" as="geometry" />
        </mxCell>
        <mxCell id="q5DTDDztkqhi49hcPNBz-23" style="edgeStyle=orthogonalEdgeStyle;rounded=0;orthogonalLoop=1;jettySize=auto;html=1;exitX=1;exitY=0.5;exitDx=0;exitDy=0;fillColor=#d80073;strokeColor=#A50040;" edge="1" parent="1" source="q5DTDDztkqhi49hcPNBz-7">
          <mxGeometry relative="1" as="geometry">
            <mxPoint x="650" y="150" as="targetPoint" />
          </mxGeometry>
        </mxCell>
        <mxCell id="q5DTDDztkqhi49hcPNBz-7" value="Customers" style="swimlane;fontStyle=1;align=center;verticalAlign=top;childLayout=stackLayout;horizontal=1;startSize=26;horizontalStack=0;resizeParent=1;resizeParentMax=0;resizeLast=0;collapsible=1;marginBottom=0;whiteSpace=wrap;html=1;fillColor=#ffe6cc;strokeColor=#d79b00;gradientColor=light-dark(#ffb375, #ededed);" vertex="1" parent="1">
          <mxGeometry x="440" y="80" width="160" height="170" as="geometry" />
        </mxCell>
        <mxCell id="q5DTDDztkqhi49hcPNBz-8" value="Name&lt;div&gt;Account&lt;/div&gt;&lt;div&gt;Preferences&lt;/div&gt;&lt;div&gt;&lt;br&gt;&lt;/div&gt;" style="text;strokeColor=#b85450;fillColor=#f8cecc;align=left;verticalAlign=top;spacingLeft=4;spacingRight=4;overflow=hidden;rotatable=0;points=[[0,0.5],[1,0.5]];portConstraint=eastwest;whiteSpace=wrap;html=1;gradientColor=light-dark(#e86868, #ededed);fontStyle=1" vertex="1" parent="q5DTDDztkqhi49hcPNBz-7">
          <mxGeometry y="26" width="160" height="94" as="geometry" />
        </mxCell>
        <mxCell id="q5DTDDztkqhi49hcPNBz-9" value="" style="line;strokeWidth=1;fillColor=none;align=left;verticalAlign=middle;spacingTop=-1;spacingLeft=3;spacingRight=3;rotatable=0;labelPosition=right;points=[];portConstraint=eastwest;strokeColor=inherit;" vertex="1" parent="q5DTDDztkqhi49hcPNBz-7">
          <mxGeometry y="120" width="160" height="8" as="geometry" />
        </mxCell>
        <mxCell id="q5DTDDztkqhi49hcPNBz-10" value="&lt;div&gt;def customer_details()&lt;/div&gt;&lt;div&gt;def edit_customer()&lt;/div&gt;" style="text;strokeColor=#006EAF;fillColor=#1ba1e2;align=left;verticalAlign=top;spacingLeft=4;spacingRight=4;overflow=hidden;rotatable=0;points=[[0,0.5],[1,0.5]];portConstraint=eastwest;whiteSpace=wrap;html=1;fontColor=#ffffff;gradientColor=light-dark(#1abaff, #ededed);" vertex="1" parent="q5DTDDztkqhi49hcPNBz-7">
          <mxGeometry y="128" width="160" height="42" as="geometry" />
        </mxCell>
        <mxCell id="q5DTDDztkqhi49hcPNBz-12" style="edgeStyle=orthogonalEdgeStyle;rounded=0;orthogonalLoop=1;jettySize=auto;html=1;exitX=1;exitY=0.5;exitDx=0;exitDy=0;entryX=0;entryY=0.5;entryDx=0;entryDy=0;fillColor=#d80073;strokeColor=#A50040;" edge="1" parent="1" source="q5DTDDztkqhi49hcPNBz-4" target="q5DTDDztkqhi49hcPNBz-8">
          <mxGeometry relative="1" as="geometry">
            <mxPoint x="420" y="155" as="targetPoint" />
            <Array as="points">
              <mxPoint x="390" y="150" />
              <mxPoint x="420" y="150" />
              <mxPoint x="420" y="153" />
            </Array>
          </mxGeometry>
        </mxCell>
        <mxCell id="q5DTDDztkqhi49hcPNBz-13" value="Vendors&lt;div&gt;&lt;br&gt;&lt;/div&gt;" style="swimlane;fontStyle=1;align=center;verticalAlign=top;childLayout=stackLayout;horizontal=1;startSize=26;horizontalStack=0;resizeParent=1;resizeParentMax=0;resizeLast=0;collapsible=1;marginBottom=0;whiteSpace=wrap;html=1;fillColor=#ffe6cc;strokeColor=#d79b00;gradientColor=light-dark(#ffb375, #ededed);" vertex="1" parent="1">
          <mxGeometry x="20" y="80" width="160" height="154" as="geometry" />
        </mxCell>
        <mxCell id="q5DTDDztkqhi49hcPNBz-14" value="Name&lt;div&gt;Location&lt;/div&gt;&lt;div&gt;Products&lt;/div&gt;&lt;div&gt;Reputation&lt;/div&gt;" style="text;strokeColor=#b85450;fillColor=#f8cecc;align=left;verticalAlign=top;spacingLeft=4;spacingRight=4;overflow=hidden;rotatable=0;points=[[0,0.5],[1,0.5]];portConstraint=eastwest;whiteSpace=wrap;html=1;gradientColor=light-dark(#e86868, #ededed);fontStyle=1" vertex="1" parent="q5DTDDztkqhi49hcPNBz-13">
          <mxGeometry y="26" width="160" height="94" as="geometry" />
        </mxCell>
        <mxCell id="q5DTDDztkqhi49hcPNBz-15" value="" style="line;strokeWidth=1;fillColor=none;align=left;verticalAlign=middle;spacingTop=-1;spacingLeft=3;spacingRight=3;rotatable=0;labelPosition=right;points=[];portConstraint=eastwest;strokeColor=inherit;" vertex="1" parent="q5DTDDztkqhi49hcPNBz-13">
          <mxGeometry y="120" width="160" height="8" as="geometry" />
        </mxCell>
        <mxCell id="q5DTDDztkqhi49hcPNBz-16" value="def vendor_information()" style="text;strokeColor=#006EAF;fillColor=#1ba1e2;align=left;verticalAlign=top;spacingLeft=4;spacingRight=4;overflow=hidden;rotatable=0;points=[[0,0.5],[1,0.5]];portConstraint=eastwest;whiteSpace=wrap;html=1;fontColor=#ffffff;gradientColor=light-dark(#1abaff, #ededed);" vertex="1" parent="q5DTDDztkqhi49hcPNBz-13">
          <mxGeometry y="128" width="160" height="26" as="geometry" />
        </mxCell>
        <mxCell id="q5DTDDztkqhi49hcPNBz-17" style="edgeStyle=orthogonalEdgeStyle;rounded=0;orthogonalLoop=1;jettySize=auto;html=1;exitX=1;exitY=0.5;exitDx=0;exitDy=0;entryX=-0.019;entryY=0.433;entryDx=0;entryDy=0;entryPerimeter=0;fillColor=#d80073;strokeColor=#A50040;" edge="1" parent="1" source="q5DTDDztkqhi49hcPNBz-14" target="q5DTDDztkqhi49hcPNBz-4">
          <mxGeometry relative="1" as="geometry" />
        </mxCell>
        <mxCell id="q5DTDDztkqhi49hcPNBz-18" value="&lt;div&gt;Cart&lt;/div&gt;" style="swimlane;fontStyle=1;align=center;verticalAlign=top;childLayout=stackLayout;horizontal=1;startSize=26;horizontalStack=0;resizeParent=1;resizeParentMax=0;resizeLast=0;collapsible=1;marginBottom=0;whiteSpace=wrap;html=1;fillColor=#ffe6cc;strokeColor=#d79b00;gradientColor=light-dark(#ffb375, #ededed);" vertex="1" parent="1">
          <mxGeometry x="650" y="80" width="160" height="170" as="geometry" />
        </mxCell>
        <mxCell id="q5DTDDztkqhi49hcPNBz-19" value="Products In Cart&lt;div&gt;Total Cost&lt;/div&gt;&lt;div&gt;Taxes&lt;/div&gt;&lt;div&gt;Shipping Cost&lt;/div&gt;&lt;div&gt;&lt;br&gt;&lt;/div&gt;" style="text;strokeColor=#b85450;fillColor=#f8cecc;align=left;verticalAlign=top;spacingLeft=4;spacingRight=4;overflow=hidden;rotatable=0;points=[[0,0.5],[1,0.5]];portConstraint=eastwest;whiteSpace=wrap;html=1;gradientColor=light-dark(#e86868, #ededed);fontStyle=1" vertex="1" parent="q5DTDDztkqhi49hcPNBz-18">
          <mxGeometry y="26" width="160" height="94" as="geometry" />
        </mxCell>
        <mxCell id="q5DTDDztkqhi49hcPNBz-20" value="" style="line;strokeWidth=1;fillColor=none;align=left;verticalAlign=middle;spacingTop=-1;spacingLeft=3;spacingRight=3;rotatable=0;labelPosition=right;points=[];portConstraint=eastwest;strokeColor=inherit;" vertex="1" parent="q5DTDDztkqhi49hcPNBz-18">
          <mxGeometry y="120" width="160" height="8" as="geometry" />
        </mxCell>
        <mxCell id="q5DTDDztkqhi49hcPNBz-21" value="def cart_contents()&lt;div&gt;def total_cost()&lt;/div&gt;" style="text;strokeColor=#006EAF;fillColor=#1ba1e2;align=left;verticalAlign=top;spacingLeft=4;spacingRight=4;overflow=hidden;rotatable=0;points=[[0,0.5],[1,0.5]];portConstraint=eastwest;whiteSpace=wrap;html=1;fontColor=#ffffff;gradientColor=light-dark(#1abaff, #ededed);" vertex="1" parent="q5DTDDztkqhi49hcPNBz-18">
          <mxGeometry y="128" width="160" height="42" as="geometry" />
        </mxCell>
        <mxCell id="q5DTDDztkqhi49hcPNBz-28" style="edgeStyle=orthogonalEdgeStyle;rounded=0;orthogonalLoop=1;jettySize=auto;html=1;exitX=0.5;exitY=0;exitDx=0;exitDy=0;fillColor=#d80073;strokeColor=#A50040;" edge="1" parent="1" source="q5DTDDztkqhi49hcPNBz-24">
          <mxGeometry relative="1" as="geometry">
            <mxPoint x="520" y="250" as="targetPoint" />
          </mxGeometry>
        </mxCell>
        <mxCell id="q5DTDDztkqhi49hcPNBz-24" value="&lt;div&gt;Account Information&lt;/div&gt;" style="swimlane;fontStyle=1;align=center;verticalAlign=top;childLayout=stackLayout;horizontal=1;startSize=26;horizontalStack=0;resizeParent=1;resizeParentMax=0;resizeLast=0;collapsible=1;marginBottom=0;whiteSpace=wrap;html=1;fillColor=#ffe6cc;strokeColor=#d79b00;gradientColor=light-dark(#ffb375, #ededed);" vertex="1" parent="1">
          <mxGeometry x="440" y="290" width="160" height="140" as="geometry" />
        </mxCell>
        <mxCell id="q5DTDDztkqhi49hcPNBz-25" value="Name&lt;div&gt;Location&lt;/div&gt;&lt;div&gt;Card Number&lt;/div&gt;&lt;div&gt;Purchase History&lt;/div&gt;&lt;div&gt;Reviews&lt;/div&gt;&lt;div&gt;Age&lt;/div&gt;&lt;div&gt;Gender&lt;/div&gt;" style="text;strokeColor=#b85450;fillColor=#f8cecc;align=left;verticalAlign=top;spacingLeft=4;spacingRight=4;overflow=hidden;rotatable=0;points=[[0,0.5],[1,0.5]];portConstraint=eastwest;whiteSpace=wrap;html=1;gradientColor=light-dark(#e86868, #ededed);fontStyle=1" vertex="1" parent="q5DTDDztkqhi49hcPNBz-24">
          <mxGeometry y="26" width="160" height="114" as="geometry" />
        </mxCell>
        <mxCell id="q5DTDDztkqhi49hcPNBz-26" value="" style="line;strokeWidth=1;fillColor=none;align=left;verticalAlign=middle;spacingTop=-1;spacingLeft=3;spacingRight=3;rotatable=0;labelPosition=right;points=[];portConstraint=eastwest;strokeColor=inherit;" vertex="1" parent="1">
          <mxGeometry x="440" y="430" width="160" height="8" as="geometry" />
        </mxCell>
        <mxCell id="q5DTDDztkqhi49hcPNBz-27" value="def customer_information()&lt;div&gt;def edit_customer_info()&lt;/div&gt;" style="text;strokeColor=#006EAF;fillColor=#1ba1e2;align=left;verticalAlign=top;spacingLeft=4;spacingRight=4;overflow=hidden;rotatable=0;points=[[0,0.5],[1,0.5]];portConstraint=eastwest;whiteSpace=wrap;html=1;fontColor=#ffffff;gradientColor=light-dark(#1abaff, #ededed);" vertex="1" parent="1">
          <mxGeometry x="440" y="438" width="160" height="42" as="geometry" />
        </mxCell>
      </root>
    </mxGraphModel>
  </diagram>
</mxfile>
